<?xml version="1.0" standalone="no"?>
<!DOCTYPE svg PUBLIC "-//W3C//DTD SVG 20010904//EN"
 "http://www.w3.org/TR/2001/REC-SVG-20010904/DTD/svg10.dtd">
<svg version="1.0" xmlns="http://www.w3.org/2000/svg"
 width="700.000000pt" height="700.000000pt" viewBox="0 0 700.000000 700.000000"
 preserveAspectRatio="xMidYMid meet">
<metadata>
Created by potrace 1.11, written by Peter Selinger 2001-2013
</metadata>
<g transform="translate(0.000000,700.000000) scale(0.100000,-0.100000)"
fill="#000000" stroke="none">
<path d="M3343 5785 c-96 -21 -198 -79 -279 -160 -80 -79 -123 -158 -150 -271
-23 -97 -15 -257 16 -339 63 -166 207 -303 367 -350 77 -22 222 -38 293 -31
l65 6 85 -108 c46 -59 187 -240 314 -402 333 -427 678 -850 694 -850 2 0 37
31 77 69 40 38 116 97 169 132 84 55 94 65 82 78 -22 26 -458 577 -777 984
l-298 378 20 56 c70 203 60 360 -32 533 -110 207 -397 329 -646 275z"/>
<path d="M2419 4235 c-139 -175 -384 -484 -545 -688 l-292 -371 -133 -1 c-117
-1 -142 -4 -200 -26 -135 -52 -246 -139 -320 -252 -139 -214 -107 -520 75
-701 119 -119 248 -177 412 -184 117 -5 172 8 292 66 143 70 254 215 293 382
28 121 9 303 -42 402 -11 21 -17 44 -13 51 4 7 244 311 534 677 289 366 529
670 533 677 5 7 -25 34 -82 73 -49 33 -118 87 -153 118 -35 31 -73 65 -85 75
l-21 19 -253 -317z"/>
<path d="M5412 3185 c-93 -21 -207 -81 -279 -149 -120 -111 -184 -258 -187
-430 l-3 -99 -69 -35 c-247 -125 -618 -240 -919 -286 -484 -74 -1011 -32
-1421 114 l-81 29 -42 -97 c-23 -53 -69 -143 -102 -199 -32 -56 -59 -104 -59
-107 0 -2 48 -20 108 -39 338 -111 637 -162 1017 -174 588 -18 1184 110 1687
362 l114 58 65 -30 c106 -50 151 -58 309 -58 131 1 150 3 200 25 169 74 285
202 346 380 24 71 25 251 2 326 -40 130 -121 238 -233 313 -134 89 -315 128
-453 96z"/>
</g>
</svg>
